<svg width="938" height="654" viewBox="0 0 938 654" fill="none" xmlns="http://www.w3.org/2000/svg">
<g id="undraw_biking_kc-4-f 1" clip-path="url(#clip0_2_2)">
<g id="Background Shape 2">
<path id="Vector" d="M195.992 26.994L200.088 364.913L377.078 451.126L372.982 113.208L195.992 26.994Z" fill="#ED34A3"/>
<path id="Vector_2" d="M937.597 381.414L580.403 207.422L584.499 545.34L805.345 652.916L937.597 381.414Z" fill="#ED34A3"/>
</g>
<g id="Background Shape 1">
<path id="Vector_3" d="M142.208 0L9.957 271.502L189.403 358.913L185.307 20.994L142.208 0Z" fill="#DDEA45"/>
<path id="Vector_4" d="M388.982 113.208L393.078 451.126L570.069 537.34L565.973 199.422L388.982 113.208Z" fill="#DDEA45"/>
</g>
<g id="OTHER">
<path id="Vector_5" d="M450.5 382.945L445.5 494.944C445.5 494.944 458.5 600.944 455.5 603.944C452.5 606.944 444.5 612.944 450.5 619.944C456.5 626.944 478.5 631.944 479.5 627.944C480.5 623.944 482.5 509.944 482.5 509.944L489.5 374.945L450.5 382.945Z" fill="#2F2E41"/>
<path id="Vector_6" opacity="0.2" d="M450.5 382.945L445.5 494.944C445.5 494.944 458.5 600.944 455.5 603.944C452.5 606.944 444.5 612.944 450.5 619.944C456.5 626.944 478.5 631.944 479.5 627.944C480.5 623.944 482.5 509.944 482.5 509.944L489.5 374.945L450.5 382.945Z" fill="black"/>
<path id="Vector_7" d="M455.5 617.944C455.5 617.944 430.5 636.944 427.5 636.944C424.5 636.944 397.5 645.944 416.5 649.944C435.5 653.944 481.5 651.944 482.5 645.944C483.5 639.944 479.5 621.736 479.5 621.736L455.5 617.944Z" fill="#2F2E41"/>
<path id="Vector_8" opacity="0.2" d="M455.5 617.944C455.5 617.944 430.5 636.944 427.5 636.944C424.5 636.944 397.5 645.944 416.5 649.944C435.5 653.944 481.5 651.944 482.5 645.944C483.5 639.944 479.5 621.736 479.5 621.736L455.5 617.944Z" fill="black"/>
<path id="Vector_9" d="M393.5 298.945C393.5 298.945 382.5 302.945 382.5 305.945C382.5 308.945 372.5 346.945 370.5 348.945C368.5 350.945 367.5 359.945 367.5 359.945C367.5 359.945 357.5 382.945 359.5 382.945C361.5 382.945 378.5 378.945 379.5 382.945C380.5 386.945 388.5 357.945 388.5 357.945L405.5 323.945L393.5 298.945Z" fill="#00C8D5"/>
<path id="Vector_10" d="M359.5 386.945C359.5 386.945 362.5 408.944 370.5 410.944C378.5 412.944 370.5 382.945 370.5 382.945L359.5 386.945Z" fill="#FFB8B8"/>
<path id="Vector_11" d="M385.5 286.945C385.5 286.945 391.5 299.945 394.5 306.945C397.5 313.945 425.5 288.945 425.5 288.945C425.5 288.945 410.5 277.945 410.5 272.945C410.5 267.945 385.5 286.945 385.5 286.945Z" fill="#FFB8B8"/>
<path id="Vector_12" d="M97.0392 612C103.746 636.791 126.716 652.144 126.716 652.144C126.716 652.144 138.814 627.304 132.108 602.513C125.401 577.723 102.43 562.369 102.43 562.369C102.43 562.369 90.3328 587.209 97.0392 612Z" fill="#3F3D56"/>
<path id="Vector_13" d="M106.894 606.672C125.296 624.586 127.544 652.124 127.544 652.124C127.544 652.124 99.9553 650.618 81.553 632.704C63.1507 614.79 60.903 587.252 60.903 587.252C60.903 587.252 88.4913 588.758 106.894 606.672Z" fill="#00C8D5"/>
<path id="Vector_14" d="M335.5 567.945C338.814 567.945 341.5 565.258 341.5 561.945C341.5 558.631 338.814 555.945 335.5 555.945C332.186 555.945 329.5 558.631 329.5 561.945C329.5 565.258 332.186 567.945 335.5 567.945Z" fill="#2F2E41"/>
<path id="Vector_15" d="M617.5 567.945C620.814 567.945 623.5 565.258 623.5 561.945C623.5 558.631 620.814 555.945 617.5 555.945C614.186 555.945 611.5 558.631 611.5 561.945C611.5 565.258 614.186 567.945 617.5 567.945Z" fill="#2F2E41"/>
<path id="Vector_16" d="M335.704 565.456L336.178 565.669L336.372 565.187L389.913 432.725L540.536 435.967L615.826 559.951L616.098 560.399L616.533 560.105L618.28 558.925L618.675 558.658L618.427 558.251L542.698 433.542L542.697 433.541L542.4 433.049L542.258 432.814L541.983 432.808L388.23 429.5L387.885 429.493L387.756 429.813L333.536 563.954L333.356 564.4L333.795 564.597L335.704 565.456Z" fill="black" stroke="black"/>
<path id="Vector_17" d="M499.518 575.868L499.319 576.594L500.065 576.496L593.065 564.226L593.557 564.161L593.496 563.669L593.27 561.823L593.208 561.322L592.708 561.388L503.152 573.204L536.727 450.639L536.856 450.165L536.385 450.027L534.656 449.52L534.168 449.377L534.033 449.868L499.518 575.868Z" fill="black" stroke="black"/>
<path id="Vector_18" d="M385.103 456.87L384.746 457.22L385.096 457.577L492.429 566.995L492.779 567.352L493.136 567.002L494.564 565.601L494.921 565.251L494.571 564.894L387.237 455.477L386.887 455.12L386.53 455.47L385.103 456.87Z" fill="black" stroke="black"/>
<path id="Vector_19" d="M542.057 430.552L541.926 431.034L542.409 431.166L544.338 431.691L544.821 431.822L544.952 431.34L550.943 409.337L551.074 408.855L550.591 408.723L548.662 408.198L548.179 408.067L548.048 408.549L542.057 430.552Z" fill="black" stroke="black"/>
<path id="Vector_20" d="M398.365 424.654L398.853 424.764L398.964 424.277L404.241 401.056L404.379 400.445H403.753H387V389.945V389.445H386.5H384.5H384V389.945V402.945V403.445H384.5H400.621L396.036 423.612L395.926 424.1L396.413 424.211L398.365 424.654Z" fill="black" stroke="black"/>
<path id="Vector_21" d="M512.5 388.944C512.5 388.944 512.5 382.945 525.5 385.945C538.5 388.945 578.5 396.944 581.5 395.944C584.5 394.944 583.5 401.944 570.5 404.944C557.5 407.944 542.5 400.944 539.5 398.944C536.5 396.944 512.5 388.944 512.5 388.944Z" fill="#2F2E41"/>
<path id="Vector_22" d="M477 568H442V583H477V568Z" fill="#00C8D5"/>
<path id="Vector_23" d="M519 574.945V574.944C519 570.89 517.798 566.926 515.545 563.555C513.293 560.184 510.091 557.557 506.345 556.005C502.599 554.453 498.477 554.047 494.501 554.838C490.524 555.629 486.871 557.582 484.004 560.449C481.137 563.316 479.185 566.969 478.394 570.945C477.603 574.922 478.009 579.044 479.56 582.789C481.112 586.535 483.74 589.737 487.111 591.99C490.482 594.242 494.445 595.444 498.5 595.444V594.944L498.501 595.444C503.935 595.438 509.146 593.277 512.989 589.434C516.832 585.591 518.994 580.38 519 574.945ZM488.777 560.394C491.655 558.471 495.039 557.444 498.5 557.444C503.139 557.45 507.587 559.295 510.868 562.576C514.149 565.857 515.995 570.305 516 574.945C516 578.406 514.974 581.789 513.051 584.667C511.128 587.545 508.395 589.788 505.197 591.112C501.999 592.437 498.481 592.783 495.086 592.108C491.691 591.433 488.573 589.766 486.126 587.319C483.678 584.871 482.011 581.753 481.336 578.359C480.661 574.964 481.008 571.445 482.332 568.247C483.657 565.05 485.9 562.317 488.777 560.394Z" fill="black" stroke="black"/>
<path id="Vector_24" d="M394.5 296.945C407.755 296.945 418.5 286.199 418.5 272.945C418.5 259.69 407.755 248.945 394.5 248.945C381.245 248.945 370.5 259.69 370.5 272.945C370.5 286.199 381.245 296.945 394.5 296.945Z" fill="#FFB8B8"/>
<path id="Vector_25" d="M470.5 384.945C470.5 384.945 401.5 424.944 402.5 437.944C403.5 450.944 455.5 521.944 455.5 521.944C455.5 521.944 459.5 542.944 463.5 542.944C467.5 542.944 492.5 551.944 493.5 545.944C494.5 539.944 485.5 532.944 486.5 528.944C487.5 524.944 442.5 451.944 442.5 451.944C442.5 451.944 538.807 415.945 518.654 384.945C498.5 353.945 470.5 384.945 470.5 384.945Z" fill="#2F2E41"/>
<path id="Vector_26" d="M472.5 538.944C472.5 538.944 460.5 541.944 458.5 545.944C456.5 549.944 421.5 562.944 431.5 565.944C441.5 568.944 499.5 569.944 501.5 567.944C503.5 565.944 501.5 542.732 493.5 542.838C485.5 542.945 476.5 545.944 472.5 538.944Z" fill="#2F2E41"/>
<path id="Vector_27" d="M394.5 309.945L417 282.445C417 282.445 442.5 274.945 453.5 289.945C464.5 304.945 494.5 341.945 504.5 349.945C514.5 357.945 528.5 388.944 523.5 389.944C518.5 390.944 490.5 378.945 479.5 386.945C468.5 394.945 447.5 395.944 446.5 391.944C445.5 387.944 385.5 320.945 385.5 311.945C385.5 302.945 391.894 301.013 391.894 301.013L394.5 309.945Z" fill="#00C8D5"/>
<path id="Vector_28" d="M406.585 389.449L376.415 378.783C374.853 378.231 373.139 379.049 372.587 380.611C372.034 382.173 372.853 383.887 374.415 384.44L404.585 395.106C406.147 395.658 407.861 394.84 408.413 393.278C408.966 391.716 408.147 390.002 406.585 389.449Z" fill="#2F2E41"/>
<path id="Vector_29" d="M338.5 376.945C338.5 376.945 303.5 386.944 306.5 397.944C309.5 408.944 341.5 384.945 341.5 384.945L338.5 376.945Z" fill="#FFB8B8"/>
<path id="Vector_30" d="M429.5 289.945C429.5 289.945 415.5 301.945 412.5 315.945C409.5 329.945 394.5 354.945 394.5 354.945L333.5 374.945C333.5 374.945 329.5 393.944 335.5 393.944C341.5 393.944 408.5 379.945 410.5 376.945C412.5 373.945 455.5 316.945 455.5 316.945C455.5 316.945 459.5 285.945 429.5 289.945Z" fill="#00C8D5"/>
<path id="Vector_31" d="M379.594 245.166C379.002 245.675 378.294 246.031 377.532 246.2C377.15 246.269 376.756 246.183 376.437 245.961C376.117 245.74 375.898 245.402 375.828 245.02C375.387 246.243 374.568 247.294 373.489 248.019C372.344 248.616 370.573 248.116 370.408 246.835C370.241 247.807 369.811 248.716 369.164 249.461C368.827 249.817 368.363 250.027 367.873 250.043C367.382 250.059 366.905 249.882 366.545 249.548C367.047 252.289 366.737 255.107 366.895 257.889C367.052 260.67 367.794 263.619 369.895 265.448C372.96 268.116 377.569 267.458 381.6 266.952C382.21 266.824 382.843 266.859 383.435 267.052C384.944 267.696 384.876 269.797 384.896 271.438C385.019 274.317 386.159 277.058 388.112 279.177C390.065 281.295 392.706 282.653 395.566 283.008C397.166 283.255 398.799 282.857 400.105 281.9C401.25 280.93 401.834 279.349 403.146 278.62C405.28 277.434 407.867 279.164 409.427 281.041C410.987 282.918 412.525 285.228 414.941 285.571C418.137 286.026 420.571 282.769 421.766 279.769C423.413 275.566 424.203 271.075 424.087 266.562C423.972 262.048 422.954 257.603 421.093 253.49C414.42 238.943 391.624 236.642 379.594 245.166Z" fill="#2F2E41"/>
<path id="Vector_32" d="M801.889 652.903L800.111 651.986C823.193 607.362 810.851 549.41 796.433 508.653C786.642 481.259 774.155 454.905 759.155 429.979L760.845 428.91C775.923 453.963 788.476 480.451 798.317 507.986C812.868 549.115 825.298 607.645 801.889 652.903Z" fill="#2F2E41"/>
<path id="Vector_33" d="M819.007 429.269L806.032 500.273L807.999 500.632L820.973 429.628L819.007 429.269Z" fill="#2F2E41"/>
<path id="Vector_34" d="M732.733 489.763L731.268 491.126L798.268 563.126L799.732 561.763L732.733 489.763Z" fill="#2F2E41"/>
<path id="Vector_35" d="M853.182 568.853L819.197 615.864L820.818 617.036L854.803 570.025L853.182 568.853Z" fill="#2F2E41"/>
<path id="Vector_36" d="M903 651.445H0V653.445H903V651.445Z" fill="#2F2E41"/>
</g>
<g id="left wheel">
<path id="Vector_37" d="M335.5 654.444H335.502C360.025 654.417 383.536 644.663 400.877 627.322C418.218 609.981 427.972 586.47 428 561.946V561.944C428 543.65 422.575 525.766 412.411 510.554C402.247 495.343 387.8 483.487 370.898 476.486C353.996 469.485 335.397 467.653 317.454 471.222C299.511 474.791 283.029 483.601 270.093 496.537C257.156 509.473 248.346 525.955 244.777 543.899C241.208 561.842 243.04 580.441 250.041 597.343C257.042 614.245 268.898 628.691 284.11 638.855C299.321 649.019 317.205 654.444 335.5 654.444ZM335.499 474.444C358.698 474.471 380.939 483.698 397.342 500.102C413.747 516.506 422.974 538.747 423 561.946C423 579.251 417.868 596.168 408.254 610.557C398.639 624.946 384.973 636.161 368.985 642.784C352.996 649.407 335.403 651.139 318.43 647.763C301.456 644.387 285.865 636.053 273.628 623.816C261.391 611.579 253.058 595.988 249.681 579.015C246.305 562.042 248.038 544.448 254.661 528.46C261.283 512.471 272.498 498.805 286.888 489.191C301.277 479.576 318.194 474.445 335.499 474.444Z" fill="#2F2E41" stroke="black" stroke-width="3"/>
<path id="Vector_38" d="M274.867 498.643L275.224 498.293L275.574 498.65L339.429 563.744L339.779 564.101L339.422 564.452L338.205 565.645L337.848 565.995L337.498 565.639L273.643 500.544L273.293 500.187L273.65 499.837L274.867 498.643Z" fill="black" stroke="black"/>
<path id="Vector_39" d="M427.394 553.646L427.444 554.144L426.946 554.194L336.221 563.341L335.724 563.392L335.674 562.894L335.503 561.198L335.452 560.7L335.95 560.65L426.675 551.503L427.172 551.452L427.223 551.95L427.394 553.646Z" fill="black" stroke="black"/>
<path id="Vector_40" d="M336.491 560.801L336.984 560.888L336.898 561.38L321.172 651.199L321.086 651.692L320.593 651.605L318.914 651.311L318.421 651.225L318.507 650.733L334.233 560.914L334.319 560.421L334.812 560.507L336.491 560.801Z" fill="black" stroke="black"/>
<path id="Vector_41" d="M334.867 560.643L335.224 560.293L335.574 560.65L399.429 625.744L399.779 626.101L399.422 626.452L398.205 627.645L397.848 627.995L397.498 627.639L333.643 562.544L333.293 562.187L333.65 561.837L334.867 560.643Z" fill="black" stroke="black"/>
<path id="Vector_42" d="M246.516 584.777L246.391 584.292L246.876 584.168L335.202 561.516L335.687 561.391L335.811 561.876L336.234 563.527L336.359 564.011L335.874 564.136L247.548 586.788L247.063 586.913L246.939 586.428L246.516 584.777Z" fill="black" stroke="black"/>
<path id="Vector_43" d="M334.897 563.696L334.433 563.51L334.619 563.046L368.496 478.387L368.682 477.923L369.146 478.109L371.269 478.958L371.733 479.144L371.547 479.608L337.67 564.266L337.484 564.731L337.02 564.545L334.897 563.696Z" fill="black" stroke="black"/>
</g>
<g id="right wheel">
<path id="Vector_44" d="M615.5 654.444H615.502C640.025 654.417 663.536 644.663 680.877 627.322C698.218 609.981 707.972 586.47 708 561.946V561.944C708 543.65 702.575 525.766 692.411 510.554C682.247 495.343 667.8 483.487 650.898 476.486C633.996 469.485 615.397 467.653 597.454 471.222C579.511 474.791 563.029 483.601 550.093 496.537C537.156 509.473 528.346 525.955 524.777 543.899C521.208 561.842 523.04 580.441 530.041 597.343C537.042 614.245 548.898 628.691 564.11 638.855C579.321 649.019 597.205 654.444 615.5 654.444ZM615.499 474.444C638.698 474.471 660.939 483.698 677.343 500.102C693.747 516.506 702.974 538.747 703 561.946C703 579.251 697.868 596.168 688.254 610.557C678.639 624.946 664.973 636.161 648.985 642.784C632.996 649.407 615.403 651.139 598.43 647.763C581.456 644.387 565.865 636.053 553.628 623.816C541.391 611.579 533.058 595.988 529.681 579.015C526.305 562.042 528.038 544.448 534.661 528.46C541.283 512.471 552.498 498.805 566.888 489.191C581.277 479.576 598.194 474.445 615.499 474.444Z" fill="#2F2E41" stroke="black" stroke-width="3"/>
<path id="Vector_45" d="M652.545 478.167L653.01 478.352L652.824 478.817L619.048 563.515L618.863 563.98L618.398 563.795L616.815 563.163L616.35 562.978L616.536 562.514L650.312 477.815L650.497 477.35L650.962 477.536L652.545 478.167Z" fill="black" stroke="black"/>
<path id="Vector_46" d="M709.394 553.646L709.444 554.144L708.946 554.194L618.221 563.341L617.724 563.392L617.674 562.894L617.503 561.198L617.452 560.7L617.95 560.65L708.675 551.503L709.172 551.452L709.223 551.95L709.394 553.646Z" fill="black" stroke="black"/>
<path id="Vector_47" d="M618.491 560.801L618.984 560.888L618.897 561.38L603.172 651.199L603.086 651.692L602.593 651.605L600.914 651.311L600.421 651.225L600.507 650.733L616.233 560.914L616.319 560.421L616.812 560.507L618.491 560.801Z" fill="black" stroke="black"/>
<path id="Vector_48" d="M616.867 560.643L617.224 560.293L617.574 560.65L681.429 625.744L681.779 626.101L681.422 626.452L680.205 627.645L679.848 627.995L679.498 627.639L615.643 562.544L615.293 562.187L615.65 561.837L616.867 560.643Z" fill="black" stroke="black"/>
<path id="Vector_49" d="M525.42 571.897L525.347 571.402L525.841 571.329L616.036 557.93L616.531 557.857L616.604 558.351L616.94 560.613L617.014 561.107L616.519 561.181L526.324 574.579L525.829 574.653L525.756 574.158L525.42 571.897Z" fill="black" stroke="black"/>
<path id="Vector_50" d="M617.375 562.073L616.947 562.331L616.688 561.903L569.559 483.842L569.3 483.414L569.728 483.156L571.685 481.974L572.113 481.716L572.372 482.144L619.501 560.205L619.76 560.633L619.332 560.891L617.375 562.073Z" fill="black" stroke="black"/>
</g>
<g id="Plant Balls">
<g id="Plant Balls_2">
<path id="Vector_51" d="M716 487.445C721.523 487.445 726 482.967 726 477.445C726 471.922 721.523 467.445 716 467.445C710.477 467.445 706 471.922 706 477.445C706 482.967 710.477 487.445 716 487.445Z" fill="#3F3D56"/>
<path id="Vector_52" d="M760 497.445C765.523 497.445 770 492.967 770 487.445C770 481.922 765.523 477.445 760 477.445C754.477 477.445 750 481.922 750 487.445C750 492.967 754.477 497.445 760 497.445Z" fill="#3F3D56"/>
<path id="Vector_53" d="M865 561.445C870.523 561.445 875 556.967 875 551.445C875 545.922 870.523 541.445 865 541.445C859.477 541.445 855 545.922 855 551.445C855 556.967 859.477 561.445 865 561.445Z" fill="#3F3D56"/>
<path id="Vector_54" d="M832 572.445C837.523 572.445 842 567.967 842 562.445C842 556.922 837.523 552.445 832 552.445C826.477 552.445 822 556.922 822 562.445C822 567.967 826.477 572.445 832 572.445Z" fill="#3F3D56"/>
</g>
<g id="Plant Balls Green">
<path id="Vector_55" d="M825 414C830.523 414 835 409.523 835 404C835 398.477 830.523 394 825 394C819.477 394 815 398.477 815 404C815 409.523 819.477 414 825 414Z" fill="#00C8D5"/>
<path id="Vector_56" d="M750 417C755.523 417 760 412.523 760 407C760 401.477 755.523 397 750 397C744.477 397 740 401.477 740 407C740 412.523 744.477 417 750 417Z" fill="#00C8D5"/>
<path id="Vector_57" d="M731 536C736.523 536 741 531.523 741 526C741 520.477 736.523 516 731 516C725.477 516 721 520.477 721 526C721 531.523 725.477 536 731 536Z" fill="#00C8D5"/>
<path id="Vector_58" d="M875 607C880.523 607 885 602.523 885 597C885 591.477 880.523 587 875 587C869.477 587 865 591.477 865 597C865 602.523 869.477 607 875 607Z" fill="#00C8D5"/>
</g>
</g>
</g>
<defs>
<clipPath id="clip0_2_2">
<rect width="937.597" height="653.445" fill="white"/>
</clipPath>
</defs>
</svg>
